<svg xmlns="http://www.w3.org/2000/svg" viewBox="0 0 640 640" role="img" aria-labelledby="title description">
  <title id="title">KeyLoad Orleans RF3 cluster</title>
  <desc id="description">Conceptual Orleans cluster of three silos on Node A, Node B and Node C. Connected grain activations run inside each silo; node-local storage stays with each physical node. The canonical KeyLoad mark sits between the nodes. This illustration shows architecture, not live telemetry or replication timing.</desc>
  <defs>
    <linearGradient id="mark-gradient" x1="0" y1="0" x2="0" y2="1"><stop offset="0" stop-color="#3a3a3d"/><stop offset="1" stop-color="#0d0e10"/></linearGradient>
    <linearGradient id="mark-sheen" x1="0" y1="0" x2="0" y2="1"><stop offset="0" stop-color="#fff" stop-opacity=".28"/><stop offset=".5" stop-color="#fff" stop-opacity="0"/></linearGradient>
    <linearGradient id="mark-iris" x1="0" y1="0" x2="1" y2="0"><stop offset="0" stop-color="#ffb08a"/><stop offset=".5" stop-color="#e3a6ff"/><stop offset="1" stop-color="#9fb4ff"/></linearGradient>
    <linearGradient id="glass-peach" x1="0" y1="0" x2="1" y2=".7"><stop stop-color="#fff" stop-opacity=".94"/><stop offset=".45" stop-color="#f1ded4" stop-opacity=".8"/><stop offset="1" stop-color="#dfcbc5" stop-opacity=".6"/></linearGradient>
    <linearGradient id="glass-lilac" x1="0" y1="0" x2="1" y2=".7"><stop stop-color="#fff" stop-opacity=".94"/><stop offset=".45" stop-color="#e9deed" stop-opacity=".8"/><stop offset="1" stop-color="#cfc6db" stop-opacity=".6"/></linearGradient>
    <linearGradient id="glass-iris" x1="0" y1="0" x2="1" y2=".7"><stop stop-color="#fff" stop-opacity=".94"/><stop offset=".45" stop-color="#e0e1ef" stop-opacity=".8"/><stop offset="1" stop-color="#c8cbdf" stop-opacity=".6"/></linearGradient>
    <linearGradient id="storage" x1="0" y1="0" x2="0" y2="1"><stop stop-color="#444149"/><stop offset="1" stop-color="#242329"/></linearGradient>
    <linearGradient id="rule" x1="0" y1="0" x2="1" y2="0"><stop stop-color="#bfb4be" stop-opacity="0"/><stop offset=".5" stop-color="#bfb4be" stop-opacity=".65"/><stop offset="1" stop-color="#bfb4be" stop-opacity="0"/></linearGradient>
    <!-- Canonical vector geometry and colors from site/favicon.svg. -->
    <symbol id="keyload-mark" viewBox="0 0 40 40">
      <rect width="40" height="40" rx="10" fill="url(#mark-gradient)"/>
      <rect x=".5" y=".5" width="39" height="39" rx="9.5" fill="url(#mark-sheen)" stroke="#fff" stroke-opacity=".14"/>
      <rect x="10" y="9" width="5" height="6" rx="2" fill="#fff"/>
      <rect x="10" y="17" width="5" height="6" rx="2" fill="#fff"/>
      <rect x="10" y="25" width="5" height="6" rx="2" fill="url(#mark-iris)"/>
      <path d="M29 9.5 19.5 20 29 30.5" fill="none" stroke="#fff" stroke-width="4.4" stroke-linecap="round" stroke-linejoin="round"/>
    </symbol>
    <symbol id="grains" viewBox="0 0 200 130">
      <g fill="none" stroke="#726778" stroke-width="1.8" stroke-linecap="round" stroke-opacity=".63">
        <path d="m34 33 63 29 65-32M34 33l13 66 50-37 62 37 3-69M47 99l112 0M97 62l0-43"/>
      </g>
      <g fill="#f7f5f3" stroke="#6e6475" stroke-width="1.8">
        <circle cx="34" cy="33" r="9"/><circle cx="162" cy="30" r="9"/>
        <circle cx="97" cy="62" r="14"/><circle cx="47" cy="99" r="9"/>
        <circle cx="159" cy="99" r="9"/><circle cx="97" cy="19" r="6"/>
      </g>
      <circle cx="97" cy="62" r="5" fill="#8c7d98"/>
    </symbol>
    <style>
      .heading{font:600 29px Arial,sans-serif;fill:#29272d;letter-spacing:-.6px}
      .node{font:600 22px Arial,sans-serif;fill:#36323b;letter-spacing:-.2px}
      .caption{font:20px Arial,sans-serif;fill:#68616d}
      .storage-label{font:17px Arial,sans-serif;fill:#f7f5f3}
      .eyebrow{font:600 13px Arial,sans-serif;fill:#817883;letter-spacing:2.7px}
    </style>
  </defs>
  <rect width="640" height="640" fill="#f7f5f3"/>
  <text x="320" y="34" class="eyebrow" text-anchor="middle">KEYLOAD / RF3</text>
  <text x="320" y="73" class="heading" text-anchor="middle">Orleans cluster</text>
  <path d="M26 91h588" stroke="url(#rule)"/>
  <!-- Static undirected routes express cluster connectivity, not traffic. -->
  <g fill="none" stroke="#a59aac" stroke-width="1.8" stroke-opacity=".65">
    <path d="M320 202 139 424M320 202l181 222M139 424h362"/>
  </g>
  <!-- Silo C routes grains; the physical node retains its storage. -->
  <g>
    <ellipse cx="320.0" cy="351.95" rx="100.7" ry="15.161999999999999" fill="#3a333f" opacity=".055"/>
    <path d="M225 132a95.0 19.95 0 0 1 190 0v127a95.0 19.95 0 0 1 -190 0Z" fill="url(#glass-lilac)" stroke="#c0b4c5" stroke-opacity=".7" stroke-width="1.5"/>
    <ellipse cx="320.0" cy="132" rx="95.0" ry="19.95" fill="#fff" fill-opacity=".7" stroke="#bcb1c2" stroke-opacity=".6" stroke-width="1.5"/>
    <path d="M238 149v99" stroke="#fff" stroke-opacity=".88" stroke-width="3" stroke-linecap="round"/>
    <ellipse cx="320.0" cy="259" rx="95.0" ry="19.95" fill="none" stroke="#bcb1c2" stroke-opacity=".5" stroke-width="1.5"/>
    <text x="320.0" y="169" class="node" text-anchor="middle">Silo C / Node C</text>
    <use href="#grains" x="249.7" y="175" width="140.6" height="76"/>
    <path d="M225 274a95.0 19.95 0 0 1 190 0v45a95.0 19.95 0 0 1 -190 0Z" fill="url(#storage)"/>
    <ellipse cx="320.0" cy="274" rx="95.0" ry="19.95" fill="#57525e" stroke="#fff" stroke-opacity=".27"/>
    <path d="M241 315q79.0 29.924999999999997 158 0" fill="none" stroke="#fff" stroke-opacity=".13"/>
    <text x="320.0" y="301.9" class="storage-label" text-anchor="middle">Node-local storage</text>
  </g>
  <!-- Silo A routes grains; the physical node retains its storage. -->
  <g>
    <ellipse cx="138.0" cy="602.1" rx="116.60000000000001" ry="17.555999999999997" fill="#3a333f" opacity=".055"/>
    <path d="M28 382a110.0 23.099999999999998 0 0 1 220 0v124a110.0 23.099999999999998 0 0 1 -220 0Z" fill="url(#glass-peach)" stroke="#c0b4c5" stroke-opacity=".7" stroke-width="1.5"/>
    <ellipse cx="138.0" cy="382" rx="110.0" ry="23.099999999999998" fill="#fff" fill-opacity=".7" stroke="#bcb1c2" stroke-opacity=".6" stroke-width="1.5"/>
    <path d="M41 399v96" stroke="#fff" stroke-opacity=".88" stroke-width="3" stroke-linecap="round"/>
    <ellipse cx="138.0" cy="506" rx="110.0" ry="23.099999999999998" fill="none" stroke="#bcb1c2" stroke-opacity=".5" stroke-width="1.5"/>
    <text x="138.0" y="419" class="node" text-anchor="middle">Silo A / Node A</text>
    <use href="#grains" x="56.6" y="425" width="162.8" height="73"/>
    <path d="M28 521a110.0 23.099999999999998 0 0 1 220 0v45a110.0 23.099999999999998 0 0 1 -220 0Z" fill="url(#storage)"/>
    <ellipse cx="138.0" cy="521" rx="110.0" ry="23.099999999999998" fill="#57525e" stroke="#fff" stroke-opacity=".27"/>
    <path d="M44 562q94.0 34.65 188 0" fill="none" stroke="#fff" stroke-opacity=".13"/>
    <text x="138.0" y="548.9" class="storage-label" text-anchor="middle">Node-local storage</text>
  </g>
  <!-- Silo B routes grains; the physical node retains its storage. -->
  <g>
    <ellipse cx="502.0" cy="602.1" rx="116.60000000000001" ry="17.555999999999997" fill="#3a333f" opacity=".055"/>
    <path d="M392 382a110.0 23.099999999999998 0 0 1 220 0v124a110.0 23.099999999999998 0 0 1 -220 0Z" fill="url(#glass-iris)" stroke="#c0b4c5" stroke-opacity=".7" stroke-width="1.5"/>
    <ellipse cx="502.0" cy="382" rx="110.0" ry="23.099999999999998" fill="#fff" fill-opacity=".7" stroke="#bcb1c2" stroke-opacity=".6" stroke-width="1.5"/>
    <path d="M405 399v96" stroke="#fff" stroke-opacity=".88" stroke-width="3" stroke-linecap="round"/>
    <ellipse cx="502.0" cy="506" rx="110.0" ry="23.099999999999998" fill="none" stroke="#bcb1c2" stroke-opacity=".5" stroke-width="1.5"/>
    <text x="502.0" y="419" class="node" text-anchor="middle">Silo B / Node B</text>
    <use href="#grains" x="420.6" y="425" width="162.8" height="73"/>
    <path d="M392 521a110.0 23.099999999999998 0 0 1 220 0v45a110.0 23.099999999999998 0 0 1 -220 0Z" fill="url(#storage)"/>
    <ellipse cx="502.0" cy="521" rx="110.0" ry="23.099999999999998" fill="#57525e" stroke="#fff" stroke-opacity=".27"/>
    <path d="M408 562q94.0 34.65 188 0" fill="none" stroke="#fff" stroke-opacity=".13"/>
    <text x="502.0" y="548.9" class="storage-label" text-anchor="middle">Node-local storage</text>
  </g>
  <use href="#keyload-mark" x="276" y="345" width="88" height="88"/>
  <text x="320" y="588" class="caption" text-anchor="middle">Grain activations</text>
  <text x="320" y="619" class="eyebrow" text-anchor="middle">CONCEPTUAL ARCHITECTURE</text>
</svg>
